<mxfile host="app.diagrams.net" modified="2021-03-31T16:11:53.278Z" agent="5.0 (X11)" etag="_s6sci3dWWa8OMTpdv2h" version="14.5.3" type="github">
  <diagram id="cvcjz8p6agWDnJl1euk5" name="Page-1">
    <mxGraphModel dx="1055" dy="491" grid="1" gridSize="10" guides="1" tooltips="1" connect="1" arrows="1" fold="1" page="1" pageScale="1" pageWidth="1100" pageHeight="1700" math="0" shadow="0">
      <root>
        <mxCell id="0" />
        <mxCell id="1" parent="0" />
        <mxCell id="dtBUzZ5RgHpVJr5jInil-1" value="" style="shape=internalStorage;whiteSpace=wrap;html=1;backgroundOutline=1;dx=181;dy=58;" vertex="1" parent="1">
          <mxGeometry x="79.6" y="54" width="736" height="636" as="geometry" />
        </mxCell>
        <mxCell id="dtBUzZ5RgHpVJr5jInil-2" value="HỌC SINH" style="text;html=1;strokeColor=none;fillColor=none;align=center;verticalAlign=middle;whiteSpace=wrap;rounded=0;" vertex="1" parent="1">
          <mxGeometry x="126" y="90" width="76" height="20" as="geometry" />
        </mxCell>
        <mxCell id="dtBUzZ5RgHpVJr5jInil-3" value="PHÒNG ĐÀO TẠO" style="text;html=1;align=center;verticalAlign=middle;resizable=0;points=[];autosize=1;" vertex="1" parent="1">
          <mxGeometry x="456.5" y="85" width="120" height="20" as="geometry" />
        </mxCell>
        <mxCell id="dtBUzZ5RgHpVJr5jInil-4" value="BP GIÁO VIÊN" style="text;html=1;align=center;verticalAlign=middle;resizable=0;points=[];autosize=1;" vertex="1" parent="1">
          <mxGeometry x="311" y="92" width="90" height="18" as="geometry" />
        </mxCell>
        <mxCell id="dtBUzZ5RgHpVJr5jInil-11" value="LẬP LỊCH THI CHO HỌC SINH" style="text;html=1;align=center;verticalAlign=middle;resizable=0;points=[];autosize=1;" vertex="1" parent="1">
          <mxGeometry x="339" y="34" width="190" height="20" as="geometry" />
        </mxCell>
        <mxCell id="dtBUzZ5RgHpVJr5jInil-12" value="" style="endArrow=none;html=1;entryX=0.5;entryY=0;entryDx=0;entryDy=0;exitX=0.5;exitY=1;exitDx=0;exitDy=0;" edge="1" parent="1" source="dtBUzZ5RgHpVJr5jInil-1" target="dtBUzZ5RgHpVJr5jInil-1">
          <mxGeometry width="50" height="50" relative="1" as="geometry">
            <mxPoint x="563" y="848" as="sourcePoint" />
            <mxPoint x="449" y="373" as="targetPoint" />
          </mxGeometry>
        </mxCell>
        <mxCell id="dtBUzZ5RgHpVJr5jInil-13" value="" style="endArrow=none;html=1;exitX=0.688;exitY=1;exitDx=0;exitDy=0;exitPerimeter=0;entryX=0.696;entryY=0;entryDx=0;entryDy=0;entryPerimeter=0;" edge="1" parent="1" source="dtBUzZ5RgHpVJr5jInil-1" target="dtBUzZ5RgHpVJr5jInil-1">
          <mxGeometry width="50" height="50" relative="1" as="geometry">
            <mxPoint x="604" y="1064" as="sourcePoint" />
            <mxPoint x="589" y="67" as="targetPoint" />
          </mxGeometry>
        </mxCell>
        <mxCell id="dtBUzZ5RgHpVJr5jInil-14" value="BAN GIÁM HIỆU" style="text;html=1;align=center;verticalAlign=middle;resizable=0;points=[];autosize=1;" vertex="1" parent="1">
          <mxGeometry x="600" y="86" width="101" height="18" as="geometry" />
        </mxCell>
        <mxCell id="dtBUzZ5RgHpVJr5jInil-15" style="edgeStyle=orthogonalEdgeStyle;rounded=0;orthogonalLoop=1;jettySize=auto;html=1;exitX=0.5;exitY=1;exitDx=0;exitDy=0;entryX=0.5;entryY=0;entryDx=0;entryDy=0;" edge="1" parent="1" target="dtBUzZ5RgHpVJr5jInil-18">
          <mxGeometry relative="1" as="geometry">
            <mxPoint x="352" y="458.5" as="sourcePoint" />
          </mxGeometry>
        </mxCell>
        <mxCell id="dtBUzZ5RgHpVJr5jInil-22" value="" style="ellipse;html=1;shape=endState;fillColor=#000000;strokeColor=#ff0000;" vertex="1" parent="1">
          <mxGeometry x="341" y="500" width="30" height="30" as="geometry" />
        </mxCell>
        <mxCell id="dtBUzZ5RgHpVJr5jInil-46" style="edgeStyle=orthogonalEdgeStyle;rounded=0;orthogonalLoop=1;jettySize=auto;html=1;exitX=0.5;exitY=1;exitDx=0;exitDy=0;entryX=0.5;entryY=0;entryDx=0;entryDy=0;" edge="1" parent="1" target="dtBUzZ5RgHpVJr5jInil-16">
          <mxGeometry relative="1" as="geometry">
            <mxPoint x="356" y="393" as="sourcePoint" />
          </mxGeometry>
        </mxCell>
        <mxCell id="dtBUzZ5RgHpVJr5jInil-47" style="edgeStyle=orthogonalEdgeStyle;rounded=0;orthogonalLoop=1;jettySize=auto;html=1;exitX=0;exitY=0.5;exitDx=0;exitDy=0;entryX=1;entryY=0.5;entryDx=0;entryDy=0;" edge="1" parent="1" target="dtBUzZ5RgHpVJr5jInil-49">
          <mxGeometry relative="1" as="geometry">
            <mxPoint x="296" y="377" as="sourcePoint" />
          </mxGeometry>
        </mxCell>
        <mxCell id="dtBUzZ5RgHpVJr5jInil-57" style="edgeStyle=orthogonalEdgeStyle;rounded=0;orthogonalLoop=1;jettySize=auto;html=1;exitX=0.5;exitY=1;exitDx=0;exitDy=0;entryX=0.5;entryY=0;entryDx=0;entryDy=0;" edge="1" parent="1" source="dtBUzZ5RgHpVJr5jInil-54" target="dtBUzZ5RgHpVJr5jInil-55">
          <mxGeometry relative="1" as="geometry" />
        </mxCell>
        <mxCell id="dtBUzZ5RgHpVJr5jInil-54" value="" style="ellipse;whiteSpace=wrap;html=1;" vertex="1" parent="1">
          <mxGeometry x="501.5" y="140" width="29" height="30" as="geometry" />
        </mxCell>
        <mxCell id="dtBUzZ5RgHpVJr5jInil-61" style="edgeStyle=orthogonalEdgeStyle;rounded=0;orthogonalLoop=1;jettySize=auto;html=1;exitX=0.5;exitY=1;exitDx=0;exitDy=0;entryX=0.5;entryY=0;entryDx=0;entryDy=0;" edge="1" parent="1" source="dtBUzZ5RgHpVJr5jInil-55" target="dtBUzZ5RgHpVJr5jInil-58">
          <mxGeometry relative="1" as="geometry" />
        </mxCell>
        <mxCell id="dtBUzZ5RgHpVJr5jInil-55" value="Lập lịch thi" style="rounded=0;whiteSpace=wrap;html=1;" vertex="1" parent="1">
          <mxGeometry x="458" y="200" width="120" height="32" as="geometry" />
        </mxCell>
        <mxCell id="dtBUzZ5RgHpVJr5jInil-60" style="edgeStyle=orthogonalEdgeStyle;rounded=0;orthogonalLoop=1;jettySize=auto;html=1;exitX=1;exitY=0.5;exitDx=0;exitDy=0;" edge="1" parent="1" source="dtBUzZ5RgHpVJr5jInil-58" target="dtBUzZ5RgHpVJr5jInil-59">
          <mxGeometry relative="1" as="geometry" />
        </mxCell>
        <mxCell id="dtBUzZ5RgHpVJr5jInil-58" value="Báo cáo với ban giám hiệu" style="rounded=0;whiteSpace=wrap;html=1;" vertex="1" parent="1">
          <mxGeometry x="458" y="254" width="120" height="32" as="geometry" />
        </mxCell>
        <mxCell id="dtBUzZ5RgHpVJr5jInil-67" style="edgeStyle=orthogonalEdgeStyle;rounded=0;orthogonalLoop=1;jettySize=auto;html=1;exitX=0.5;exitY=1;exitDx=0;exitDy=0;entryX=1;entryY=0.75;entryDx=0;entryDy=0;" edge="1" parent="1" source="dtBUzZ5RgHpVJr5jInil-59" target="dtBUzZ5RgHpVJr5jInil-66">
          <mxGeometry relative="1" as="geometry" />
        </mxCell>
        <mxCell id="dtBUzZ5RgHpVJr5jInil-59" value="Xác nhận lịch thi" style="rounded=0;whiteSpace=wrap;html=1;" vertex="1" parent="1">
          <mxGeometry x="650" y="320" width="120" height="32" as="geometry" />
        </mxCell>
        <mxCell id="dtBUzZ5RgHpVJr5jInil-62" value="BM3" style="shape=note;whiteSpace=wrap;html=1;backgroundOutline=1;darkOpacity=0.05;size=11;fillColor=#fff2cc;strokeColor=#d6b656;" vertex="1" parent="1">
          <mxGeometry x="720" y="262" width="28.8" height="37" as="geometry" />
        </mxCell>
        <mxCell id="dtBUzZ5RgHpVJr5jInil-70" style="edgeStyle=orthogonalEdgeStyle;rounded=0;orthogonalLoop=1;jettySize=auto;html=1;exitX=0.5;exitY=1;exitDx=0;exitDy=0;entryX=1;entryY=0.5;entryDx=0;entryDy=0;" edge="1" parent="1" source="dtBUzZ5RgHpVJr5jInil-66" target="dtBUzZ5RgHpVJr5jInil-68">
          <mxGeometry relative="1" as="geometry" />
        </mxCell>
        <mxCell id="dtBUzZ5RgHpVJr5jInil-73" style="edgeStyle=orthogonalEdgeStyle;rounded=0;orthogonalLoop=1;jettySize=auto;html=1;exitX=0;exitY=0.5;exitDx=0;exitDy=0;" edge="1" parent="1" source="dtBUzZ5RgHpVJr5jInil-66" target="dtBUzZ5RgHpVJr5jInil-72">
          <mxGeometry relative="1" as="geometry" />
        </mxCell>
        <mxCell id="dtBUzZ5RgHpVJr5jInil-66" value="Thông báo với thành phần liên quan" style="rounded=0;whiteSpace=wrap;html=1;" vertex="1" parent="1">
          <mxGeometry x="462" y="361" width="120" height="32" as="geometry" />
        </mxCell>
        <mxCell id="dtBUzZ5RgHpVJr5jInil-69" style="edgeStyle=orthogonalEdgeStyle;rounded=0;orthogonalLoop=1;jettySize=auto;html=1;exitX=0.5;exitY=1;exitDx=0;exitDy=0;" edge="1" parent="1" source="dtBUzZ5RgHpVJr5jInil-68" target="dtBUzZ5RgHpVJr5jInil-22">
          <mxGeometry relative="1" as="geometry" />
        </mxCell>
        <mxCell id="dtBUzZ5RgHpVJr5jInil-68" value="Xác nhận lịch thi" style="rounded=0;whiteSpace=wrap;html=1;" vertex="1" parent="1">
          <mxGeometry x="296" y="430" width="120" height="32" as="geometry" />
        </mxCell>
        <mxCell id="dtBUzZ5RgHpVJr5jInil-71" value="BM3" style="shape=note;whiteSpace=wrap;html=1;backgroundOutline=1;darkOpacity=0.05;size=11;fillColor=#fff2cc;strokeColor=#d6b656;" vertex="1" parent="1">
          <mxGeometry x="433.2" y="450" width="28.8" height="37" as="geometry" />
        </mxCell>
        <mxCell id="dtBUzZ5RgHpVJr5jInil-76" style="edgeStyle=orthogonalEdgeStyle;rounded=0;orthogonalLoop=1;jettySize=auto;html=1;exitX=0.5;exitY=1;exitDx=0;exitDy=0;entryX=0.5;entryY=0;entryDx=0;entryDy=0;" edge="1" parent="1" source="dtBUzZ5RgHpVJr5jInil-72" target="dtBUzZ5RgHpVJr5jInil-75">
          <mxGeometry relative="1" as="geometry" />
        </mxCell>
        <mxCell id="dtBUzZ5RgHpVJr5jInil-72" value="Xác nhận lịch thi" style="rounded=0;whiteSpace=wrap;html=1;" vertex="1" parent="1">
          <mxGeometry x="126" y="361" width="120" height="32" as="geometry" />
        </mxCell>
        <mxCell id="dtBUzZ5RgHpVJr5jInil-74" value="BM3" style="shape=note;whiteSpace=wrap;html=1;backgroundOutline=1;darkOpacity=0.05;size=0;fillColor=#fff2cc;strokeColor=#d6b656;" vertex="1" parent="1">
          <mxGeometry x="250" y="330" width="28.8" height="37" as="geometry" />
        </mxCell>
        <mxCell id="dtBUzZ5RgHpVJr5jInil-83" style="edgeStyle=orthogonalEdgeStyle;rounded=0;orthogonalLoop=1;jettySize=auto;html=1;exitX=0.5;exitY=1;exitDx=0;exitDy=0;entryX=0.5;entryY=0;entryDx=0;entryDy=0;" edge="1" parent="1" source="dtBUzZ5RgHpVJr5jInil-75" target="dtBUzZ5RgHpVJr5jInil-77">
          <mxGeometry relative="1" as="geometry" />
        </mxCell>
        <mxCell id="dtBUzZ5RgHpVJr5jInil-75" value="Tham gia thi" style="rounded=0;whiteSpace=wrap;html=1;" vertex="1" parent="1">
          <mxGeometry x="120" y="430" width="120" height="32" as="geometry" />
        </mxCell>
        <mxCell id="dtBUzZ5RgHpVJr5jInil-79" style="edgeStyle=orthogonalEdgeStyle;rounded=0;orthogonalLoop=1;jettySize=auto;html=1;exitX=0.5;exitY=1;exitDx=0;exitDy=0;entryX=0.5;entryY=0;entryDx=0;entryDy=0;" edge="1" parent="1" source="dtBUzZ5RgHpVJr5jInil-77" target="dtBUzZ5RgHpVJr5jInil-78">
          <mxGeometry relative="1" as="geometry" />
        </mxCell>
        <mxCell id="dtBUzZ5RgHpVJr5jInil-82" style="edgeStyle=orthogonalEdgeStyle;rounded=0;orthogonalLoop=1;jettySize=auto;html=1;exitX=0;exitY=0.5;exitDx=0;exitDy=0;entryX=0;entryY=0.5;entryDx=0;entryDy=0;" edge="1" parent="1" source="dtBUzZ5RgHpVJr5jInil-77" target="dtBUzZ5RgHpVJr5jInil-55">
          <mxGeometry relative="1" as="geometry" />
        </mxCell>
        <mxCell id="dtBUzZ5RgHpVJr5jInil-77" value="Thi qua?" style="rhombus;whiteSpace=wrap;html=1;" vertex="1" parent="1">
          <mxGeometry x="126" y="490" width="90" height="94" as="geometry" />
        </mxCell>
        <mxCell id="dtBUzZ5RgHpVJr5jInil-78" value="" style="ellipse;html=1;shape=endState;fillColor=#000000;strokeColor=#ff0000;" vertex="1" parent="1">
          <mxGeometry x="156" y="620" width="30" height="30" as="geometry" />
        </mxCell>
        <mxCell id="dtBUzZ5RgHpVJr5jInil-80" value="S" style="text;html=1;align=center;verticalAlign=middle;resizable=0;points=[];autosize=1;" vertex="1" parent="1">
          <mxGeometry x="90" y="500" width="18" height="18" as="geometry" />
        </mxCell>
        <mxCell id="dtBUzZ5RgHpVJr5jInil-81" value="Đ" style="text;html=1;align=center;verticalAlign=middle;resizable=0;points=[];autosize=1;" vertex="1" parent="1">
          <mxGeometry x="170" y="583" width="20" height="20" as="geometry" />
        </mxCell>
      </root>
    </mxGraphModel>
  </diagram>
</mxfile>
